<?xml version="1.0" standalone="no"?>
<!DOCTYPE svg PUBLIC "-//W3C//DTD SVG 20010904//EN"
 "http://www.w3.org/TR/2001/REC-SVG-20010904/DTD/svg10.dtd">
<svg version="1.0" xmlns="http://www.w3.org/2000/svg"
 width="240.000000pt" height="240.000000pt" viewBox="0 0 240.000000 240.000000"
 preserveAspectRatio="xMidYMid meet">
<metadata>
Created by potrace 1.14, written by Peter Selinger 2001-2017
</metadata>
<g transform="translate(0.000000,240.000000) scale(0.100000,-0.100000)"
fill="#000000" stroke="none">
<path d="M961 1984 c-278 -34 -511 -120 -672 -250 -73 -58 -127 -126 -161
-201 -17 -37 -22 -67 -22 -134 0 -76 3 -93 31 -150 40 -80 105 -155 180 -205
32 -22 60 -42 63 -45 13 -16 205 -100 281 -123 129 -39 220 -56 384 -72 107
-10 305 -4 425 13 25 3 54 7 65 9 11 1 20 3 20 4 0 1 11 3 25 6 78 14 250 69
327 105 311 148 443 353 369 576 -23 69 -103 170 -183 229 -88 67 -243 146
-328 169 -16 5 -33 9 -37 10 -5 2 -9 3 -10 4 -2 2 -14 5 -27 7 -14 2 -50 11
-80 19 -152 38 -456 52 -650 29z"/>
<path d="M100 1115 c-14 -164 28 -294 128 -398 47 -49 177 -136 262 -176 74
-34 230 -87 285 -95 21 -4 41 -8 45 -11 4 -2 32 -7 61 -11 30 -3 70 -9 90 -13
43 -10 379 -6 464 4 139 17 312 61 420 106 83 36 191 94 212 114 8 8 18 15 22
15 5 0 35 27 69 60 106 105 140 186 140 335 0 47 -1 85 -3 85 -2 0 -11 -25
-20 -55 -10 -30 -21 -55 -26 -55 -4 0 -10 -8 -13 -18 -10 -29 -110 -127 -177
-173 -119 -81 -358 -174 -499 -195 -19 -3 -40 -7 -47 -9 -74 -24 -504 -25
-616 0 -12 2 -35 6 -52 9 -147 20 -372 107 -502 193 -109 72 -202 188 -237
293 -3 11 -5 9 -6 -5z"/>
</g>
</svg>
